<svg width="18" height="19" viewBox="0 0 18 19" fill="none" xmlns="http://www.w3.org/2000/svg">
<path fill-rule="evenodd" clip-rule="evenodd" d="M3 3.91602C2.58921 3.91602 2.25 4.25523 2.25 4.66602V13.666C2.25 14.0768 2.58921 14.416 3 14.416H15C15.4108 14.416 15.75 14.0768 15.75 13.666V4.66602C15.75 4.25523 15.4108 3.91602 15 3.91602H3ZM0.75 4.66602C0.75 3.4268 1.76079 2.41602 3 2.41602H15C16.2392 2.41602 17.25 3.4268 17.25 4.66602V13.666C17.25 14.9052 16.2392 15.916 15 15.916H3C1.76079 15.916 0.75 14.9052 0.75 13.666V4.66602Z" fill="#54B22C"/>
<path fill-rule="evenodd" clip-rule="evenodd" d="M0.88564 4.23598C1.12318 3.89665 1.59082 3.81412 1.93016 4.05166L9.00006 9.00059L16.07 4.05166C16.4093 3.81412 16.877 3.89665 17.1145 4.23598C17.352 4.57532 17.2695 5.04297 16.9302 5.2805L9.43016 10.5305C9.17192 10.7113 8.82821 10.7113 8.56997 10.5305L1.06997 5.2805C0.730631 5.04297 0.648105 4.57532 0.88564 4.23598Z" fill="#54B22C"/>
</svg>
