<svg width="25" height="25" viewBox="0 0 25 25" fill="none" xmlns="http://www.w3.org/2000/svg">
<g clip-path="url(#clip0_80_6099)">
<path d="M24.664 7.06849C24.6077 5.79103 24.4011 4.91279 24.1052 4.15179C23.7999 3.34399 23.3302 2.62078 22.7149 2.01957C22.1137 1.409 21.3857 0.934565 20.5873 0.634051C19.8219 0.338124 18.9482 0.131544 17.6707 0.0752201C16.3837 0.0141267 15.9752 0 12.711 0C9.4468 0 9.03822 0.0141267 7.75599 0.0704501C6.47853 0.126773 5.60029 0.333537 4.83947 0.629281C4.03149 0.934565 3.30828 1.40423 2.70707 2.01957C2.0965 2.62078 1.62225 3.34876 1.32155 4.1472C1.02562 4.91279 0.819044 5.78626 0.76272 7.06372C0.701627 8.35072 0.6875 8.7593 0.6875 12.0235C0.6875 15.2877 0.701627 15.6962 0.75795 16.9785C0.814273 18.2559 1.02104 19.1342 1.31696 19.8952C1.62225 20.703 2.0965 21.4262 2.70707 22.0274C3.30828 22.638 4.03626 23.1124 4.8347 23.4129C5.60029 23.7088 6.47376 23.9154 7.75141 23.9717C9.03345 24.0283 9.44221 24.0422 12.7064 24.0422C15.9706 24.0422 16.3792 24.0283 17.6614 23.9717C18.9388 23.9154 19.8171 23.7088 20.5779 23.4129C22.1937 22.7882 23.4711 21.5108 24.0958 19.8952C24.3916 19.1296 24.5983 18.2559 24.6547 16.9785C24.711 15.6962 24.7251 15.2877 24.7251 12.0235C24.7251 8.7593 24.7203 8.35072 24.664 7.06849ZM22.499 16.8845C22.4472 18.0587 22.25 18.6928 22.0856 19.1155C21.6816 20.1629 20.8504 20.9941 19.803 21.3981C19.3803 21.5625 18.7416 21.7597 17.572 21.8113C16.3039 21.8678 15.9236 21.8817 12.7158 21.8817C9.50789 21.8817 9.1228 21.8678 7.85928 21.8113C6.68511 21.7597 6.05106 21.5625 5.62836 21.3981C5.10714 21.2055 4.63271 20.9002 4.24761 20.501C3.8484 20.1111 3.54311 19.6415 3.35048 19.1202C3.18609 18.6975 2.98887 18.0587 2.93732 16.8893C2.88081 15.6212 2.86687 15.2407 2.86687 12.0328C2.86687 8.82498 2.88081 8.43989 2.93732 7.17655C2.98887 6.00239 3.18609 5.36833 3.35048 4.94563C3.54311 4.42423 3.8484 3.94998 4.25238 3.5647C4.64206 3.16548 5.11173 2.8602 5.63313 2.66775C6.05583 2.50336 6.69465 2.30614 7.86405 2.2544C9.13216 2.19808 9.51266 2.18395 12.7203 2.18395C15.933 2.18395 16.3133 2.19808 17.5768 2.2544C18.751 2.30614 19.385 2.50336 19.8077 2.66775C20.329 2.8602 20.8034 3.16548 21.1885 3.5647C21.5877 3.95456 21.893 4.42423 22.0856 4.94563C22.25 5.36833 22.4472 6.00697 22.499 7.17655C22.5553 8.44466 22.5694 8.82498 22.5694 12.0328C22.5694 15.2407 22.5553 15.6164 22.499 16.8845Z" fill="#222222"/>
<path d="M12.7113 5.84766C9.30161 5.84766 6.53516 8.61392 6.53516 12.0238C6.53516 15.4336 9.30161 18.1999 12.7113 18.1999C16.1211 18.1999 18.8874 15.4336 18.8874 12.0238C18.8874 8.61392 16.1211 5.84766 12.7113 5.84766ZM12.7113 16.0301C10.4993 16.0301 8.70498 14.236 8.70498 12.0238C8.70498 9.81157 10.4993 8.01748 12.7113 8.01748C14.9235 8.01748 16.7176 9.81157 16.7176 12.0238C16.7176 14.236 14.9235 16.0301 12.7113 16.0301Z" fill="#222222"/>
<path d="M20.5733 5.60395C20.5733 6.40018 19.9277 7.04579 19.1313 7.04579C18.3351 7.04579 17.6895 6.40018 17.6895 5.60395C17.6895 4.80753 18.3351 4.16211 19.1313 4.16211C19.9277 4.16211 20.5733 4.80753 20.5733 5.60395Z" fill="#222222"/>
</g>
<defs>
<clipPath id="clip0_80_6099">
<rect width="24" height="24.0423" fill="white" transform="translate(0.666016)"/>
</clipPath>
</defs>
</svg>
