<svg width="25" height="24" viewBox="0 0 25 24" fill="none" xmlns="http://www.w3.org/2000/svg">
<path d="M21.9353 21.6007V14.5687C21.9353 11.1127 21.1913 8.47266 17.1593 8.47266C15.2153 8.47266 13.9193 9.52866 13.3913 10.5367H13.3433V8.78466H9.52734V21.6007H13.5113V15.2407C13.5113 13.5607 13.8233 11.9527 15.8873 11.9527C17.9273 11.9527 17.9513 13.8487 17.9513 15.3367V21.5767H21.9353V21.6007Z" fill="#222222"/>
<path d="M3.04688 8.78516H7.03087V21.6012H3.04688V8.78516Z" fill="#222222"/>
<path d="M5.03838 2.40039C3.76638 2.40039 2.73438 3.43239 2.73438 4.70439C2.73438 5.97639 3.76638 7.03239 5.03838 7.03239C6.31038 7.03239 7.34238 5.97639 7.34238 4.70439C7.34238 3.43239 6.31038 2.40039 5.03838 2.40039Z" fill="#222222"/>
</svg>
