<svg width="18" height="19" viewBox="0 0 18 19" fill="none" xmlns="http://www.w3.org/2000/svg">
<g clip-path="url(#clip0_80_6043)">
<path d="M14.9181 18.0315C14.8506 18.0315 14.7831 18.0315 14.7081 18.024C12.2856 17.7615 9.93063 16.9215 7.89813 15.6015C6.00813 14.4015 4.37313 12.7665 3.17313 10.8765C1.85313 8.83648 1.01313 6.47398 0.758131 4.05148C0.728131 3.72898 0.765631 3.42148 0.863131 3.12148C0.960631 2.82148 1.12563 2.55148 1.33563 2.31898C1.54563 2.08648 1.80063 1.90648 2.08563 1.77898C2.37813 1.65148 2.68563 1.58398 3.00063 1.58398H5.25063C5.77563 1.58398 6.31563 1.77148 6.73563 2.13148C7.14813 2.48398 7.41813 2.97898 7.49313 3.51898C7.58313 4.18648 7.74813 4.84648 7.98063 5.46898C8.13063 5.87398 8.16813 6.30898 8.07063 6.72898C7.98063 7.14898 7.77063 7.53898 7.47063 7.83898L6.93063 8.37898C7.81563 9.75898 8.98563 10.9365 10.3731 11.8215L10.9131 11.2815C11.2206 10.974 11.6106 10.764 12.0306 10.6815C12.4506 10.5915 12.8856 10.6215 13.2906 10.7715C13.9131 11.004 14.5731 11.169 15.2331 11.259C15.7881 11.334 16.2831 11.6115 16.6431 12.0315C16.9956 12.4515 17.1906 12.984 17.1756 13.5315V15.774C17.1756 16.089 17.1156 16.389 16.9881 16.6815C16.8606 16.9665 16.6731 17.229 16.4481 17.439C16.2156 17.649 15.9456 17.814 15.6456 17.9115C15.4056 17.994 15.1656 18.0315 14.9181 18.0315ZM5.26563 3.08398H5.25813H3.00063C2.89563 3.08398 2.79813 3.10648 2.70063 3.15148C2.60313 3.18898 2.51313 3.24898 2.44563 3.32398C2.37063 3.39898 2.31813 3.48898 2.28813 3.59398C2.25813 3.69148 2.24313 3.79648 2.25063 3.90148C2.48313 6.08398 3.24063 8.21398 4.43313 10.0665C5.52063 11.7765 6.99813 13.254 8.70813 14.3415C10.5531 15.5415 12.6831 16.2915 14.8581 16.5315C14.9481 16.539 15.0531 16.524 15.1506 16.494C15.2481 16.464 15.3381 16.404 15.4206 16.3365C15.5031 16.269 15.5631 16.179 15.6006 16.0815C15.6456 15.984 15.6606 15.879 15.6606 15.774V13.524C15.6606 13.5165 15.6606 13.509 15.6606 13.509C15.6681 13.3215 15.6006 13.149 15.4806 13.0065C15.3606 12.864 15.1956 12.774 15.0156 12.7515C14.2506 12.654 13.4856 12.459 12.7506 12.189C12.6156 12.1365 12.4656 12.129 12.3306 12.159C12.1881 12.189 12.0606 12.2565 11.9556 12.3615L11.0106 13.314C10.7706 13.554 10.4031 13.599 10.1106 13.434C8.11563 12.3015 6.46563 10.644 5.32563 8.65648C5.16813 8.34148 5.21313 7.97398 5.45313 7.73398L6.40563 6.78148C6.50313 6.68398 6.57063 6.55648 6.60063 6.41398C6.63063 6.27148 6.62313 6.12898 6.57063 5.99398C6.29313 5.25898 6.10563 4.49398 6.00063 3.72148C5.97813 3.54898 5.88813 3.38398 5.75313 3.26398C5.61813 3.15148 5.44563 3.08398 5.26563 3.08398Z" fill="#54B22C"/>
</g>
<defs>
<clipPath id="clip0_80_6043">
<rect width="18" height="18" fill="white" transform="translate(0 0.833984)"/>
</clipPath>
</defs>
</svg>
