<svg width="16" height="16" viewBox="0 0 16 16" fill="none" xmlns="http://www.w3.org/2000/svg">
<path d="M11.9466 9.54602C11.7739 9.71335 11.6946 9.95535 11.7339 10.1927L12.3266 13.4727C12.3766 13.7507 12.2592 14.032 12.0266 14.1927C11.7986 14.3594 11.4952 14.3793 11.2466 14.246L8.2939 12.706C8.19124 12.6513 8.07723 12.622 7.96057 12.6187H7.7799C7.71724 12.628 7.6559 12.648 7.5999 12.6787L4.64657 14.226C4.50057 14.2993 4.33524 14.3253 4.17323 14.2993C3.77857 14.2247 3.51523 13.8487 3.5799 13.452L4.17323 10.172C4.21257 9.93268 4.13323 9.68935 3.96057 9.51935L1.55323 7.18602C1.3519 6.99068 1.2819 6.69735 1.3739 6.43268C1.46323 6.16868 1.69123 5.97602 1.96657 5.93268L5.2799 5.45202C5.5319 5.42602 5.75323 5.27268 5.86657 5.04602L7.32657 2.05268C7.36123 1.98602 7.4059 1.92468 7.4599 1.87268L7.5199 1.82602C7.55123 1.79135 7.58723 1.76268 7.62723 1.73935L7.6999 1.71268L7.81324 1.66602H8.0939C8.34457 1.69202 8.56524 1.84202 8.68057 2.06602L10.1599 5.04602C10.2666 5.26402 10.4739 5.41535 10.7132 5.45202L14.0266 5.93268C14.3066 5.97268 14.5406 6.16602 14.6332 6.43268C14.7206 6.70002 14.6452 6.99335 14.4399 7.18602L11.9466 9.54602Z" fill="#FDC040"/>
</svg>
