<svg width="18" height="19" viewBox="0 0 18 19" fill="none" xmlns="http://www.w3.org/2000/svg">
<path fill-rule="evenodd" clip-rule="evenodd" d="M9 2.75C5.27208 2.75 2.25 5.77208 2.25 9.5C2.25 13.2279 5.27208 16.25 9 16.25C12.7279 16.25 15.75 13.2279 15.75 9.5C15.75 5.77208 12.7279 2.75 9 2.75ZM0.75 9.5C0.75 4.94365 4.44365 1.25 9 1.25C13.5563 1.25 17.25 4.94365 17.25 9.5C17.25 14.0563 13.5563 17.75 9 17.75C4.44365 17.75 0.75 14.0563 0.75 9.5Z" fill="#54B22C"/>
<path fill-rule="evenodd" clip-rule="evenodd" d="M9 4.25C9.41421 4.25 9.75 4.58579 9.75 5V9.5C9.75 9.91421 9.41421 10.25 9 10.25H5.625C5.21079 10.25 4.875 9.91421 4.875 9.5C4.875 9.08579 5.21079 8.75 5.625 8.75H8.25V5C8.25 4.58579 8.58579 4.25 9 4.25Z" fill="#54B22C"/>
</svg>
